HIERARCHY
ROOT Hips
{
 OFFSET 0.000000 0.000000 0.000000
 CHANNELS 6 Xposition Yposition Zposition Yrotation Xrotation Zrotation
 JOINT Chest
 {
  OFFSET 0.000000 9.585900 0.002600
  CHANNELS 3 Yrotation Xrotation Zrotation
  JOINT Chest2
  {
   OFFSET 0.000000 9.601200 -0.005300
   CHANNELS 3 Yrotation Xrotation Zrotation
   JOINT Chest3
   {
    OFFSET 0.000000 9.561800 0.000000
    CHANNELS 3 Yrotation Xrotation Zrotation
    JOINT Chest4
    {
     OFFSET 0.000000 9.552100 0.000000
     CHANNELS 3 Yrotation Xrotation Zrotation
     JOINT Neck
     {
      OFFSET 0.000000 14.453000 0.000000
      CHANNELS 3 Yrotation Xrotation Zrotation
      JOINT Head
      {
       OFFSET 0.000000 8.936500 -0.011300
       CHANNELS 3 Yrotation Xrotation Zrotation
       End Site
       {
        OFFSET 0.000000 17.073600 -0.006000
       }
      }
     }
     JOINT RightCollar
     {
      OFFSET -2.921100 9.558500 0.000000
      CHANNELS 3 Yrotation Xrotation Zrotation
      JOINT RightShoulder
      {
       OFFSET -13.519700 0.000000 0.000000
       CHANNELS 3 Yrotation Xrotation Zrotation
       JOINT RightElbow
       {
        OFFSET 0.000000 -29.696600 0.000000
        CHANNELS 3 Yrotation Xrotation Zrotation
        JOINT RightWrist
        {
         OFFSET 0.000000 -24.004700 0.000000
         CHANNELS 3 Yrotation Xrotation Zrotation
         End Site
         {
          OFFSET 0.000000 -17.728500 0.000000
         }
        }
       }
      }
     }
     JOINT LeftCollar
     {
      OFFSET 2.921100 9.558500 0.000000
      CHANNELS 3 Yrotation Xrotation Zrotation
      JOINT LeftShoulder
      {
       OFFSET 13.519700 0.000000 0.000000
       CHANNELS 3 Yrotation Xrotation Zrotation
       JOINT LeftElbow
       {
        OFFSET 0.000000 -29.696600 0.000000
        CHANNELS 3 Yrotation Xrotation Zrotation
        JOINT LeftWrist
        {
         OFFSET 0.000000 -24.004700 0.000000
         CHANNELS 3 Yrotation Xrotation Zrotation
         End Site
         {
          OFFSET 0.000000 -17.728500 0.000000
         }
        }
       }
      }
     }
    }
   }
  }
 }
 JOINT RightHip
 {
  OFFSET -7.771700 -0.012900 -0.001300
  CHANNELS 3 Yrotation Xrotation Zrotation
  JOINT RightKnee
  {
   OFFSET 0.000000 -40.869800 0.001200
   CHANNELS 3 Yrotation Xrotation Zrotation
   JOINT RightAnkle
   {
    OFFSET 0.000000 -39.717900 0.002100
    CHANNELS 3 Yrotation Xrotation Zrotation
    JOINT RightToe
    {
     OFFSET 0.000000 -4.965400 11.033500
     CHANNELS 3 Yrotation Xrotation Zrotation
     End Site
     {
      OFFSET 0.000000 -1.423100 5.872300
     }
    }
   }
  }
 }
 JOINT LeftHip
 {
  OFFSET 7.771700 -0.012900 -0.001300
  CHANNELS 3 Yrotation Xrotation Zrotation
  JOINT LeftKnee
  {
   OFFSET 0.000000 -40.869800 0.001200
   CHANNELS 3 Yrotation Xrotation Zrotation
   JOINT LeftAnkle
   {
    OFFSET 0.000000 -39.717900 0.002100
    CHANNELS 3 Yrotation Xrotation Zrotation
    JOINT LeftToe
    {
     OFFSET 0.000000 -4.965400 11.033500
     CHANNELS 3 Yrotation Xrotation Zrotation
     End Site
     {
      OFFSET 0.000000 -1.423100 5.872300
     }
    }
   }
  }
 }
}
MOTION
Frames: 13
Frame Time: 0.008333
0.000000 85.388000 0.000000 0.000000 -5.767877 0.000000 0.000000 11.653817 0.000000 0.000000 -5.885947 0.000000 0.000000 -0.000000 0.000000 0.000000 -0.000000 0.000000 0.000000 12.528835 0.000000 0.000000 0.711642 0.000000 0.000000 -0.000000 0.000000 0.000000 0.000000 -90.000000 0.000000 -2.309062 0.000000 0.000000 2.309062 0.000000 0.000000 -0.000000 0.000000 0.000000 -0.000000 90.000000 0.000000 -2.309062 0.000000 0.000000 2.309062 0.000000 0.000000 8.520406 0.000000 0.000000 1.905762 0.000000 -0.000000 -4.658285 0.000000 0.000000 -0.000000 0.000000 0.000000 8.520406 0.000000 0.000000 1.905762 0.000000 -0.000000 -4.658285 0.000000 0.000000 -0.000000 0.000000
11.976121 49.959698 51.018009 174.406435 -32.224375 -5.550478 7.783873 22.335315 7.939413 1.011234 3.501343 0.864839 1.652058 5.615224 1.420890 6.332262 18.791095 5.623094 -1.267210 19.600573 3.281247 -3.312920 0.737734 6.375898 1.496864 -3.772828 -4.236564 17.416315 -30.178038 -19.363766 162.917514 -61.518488 -169.281190 -6.283191 -11.463471 3.884572 -11.049688 -0.157378 1.568517 1.564063 -3.969203 -1.491334 -132.735790 -70.312652 135.267255 10.658866 -6.698586 -2.211648 1.967892 -48.860100 6.865889 -129.656345 84.796911 -118.496453 -2.165000 -12.452059 -2.933828 -0.244198 0.785659 -0.037354 -6.768142 -52.333707 13.148489 -150.760351 81.325645 -158.179753 0.102911 -13.430265 8.473840 -0.282207 -0.960964 -0.163239
11.969920 49.961007 51.013033 174.443005 -32.189388 -5.563561 7.784509 22.406975 7.982787 1.013801 3.523939 0.870079 1.655920 5.649425 1.429191 6.329203 18.842151 5.635987 -1.245797 19.631240 3.293651 -3.275937 0.793988 6.390730 1.499480 -3.727983 -4.236397 17.445625 -30.151372 -19.382660 163.155730 -61.385036 -169.423670 -6.307692 -11.535756 4.055285 -11.071119 -0.129578 1.581786 1.615716 -3.998727 -1.501735 -134.064217 -70.215997 136.464442 10.659466 -6.526130 -2.415782 2.004081 -48.901307 6.851390 -129.551154 84.760494 -118.389530 -2.191799 -12.450340 -2.919163 -0.210513 0.794761 -0.024357 -6.774825 -52.367436 13.154249 -150.400735 81.307088 -157.848845 0.134475 -13.403509 8.516025 -0.289915 -0.947574 -0.156354
11.956112 49.962363 51.006121 174.505084 -32.149713 -5.547515 7.745487 22.478267 7.982446 1.016223 3.545125 0.875787 1.659613 5.681451 1.438212 6.327049 18.889017 5.652195 -1.229524 19.663021 3.303178 -3.247379 0.852529 6.401813 1.501090 -3.673822 -4.238210 17.454417 -30.124644 -19.387360 163.403579 -61.281600 -169.552651 -6.320302 -11.604557 4.168583 -11.088667 -0.107400 1.591144 1.649444 -4.031292 -1.516703 -135.345335 -70.133638 137.603456 10.678057 -6.393304 -2.588482 2.068580 -48.942871 6.779875 -129.501125 84.721008 -118.365621 -2.208334 -12.446359 -2.880414 -0.173196 0.794612 -0.009775 -6.760516 -52.405373 13.094603 -149.964011 81.288797 -157.448894 0.144837 -13.391552 8.550550 -0.257775 -0.915519 -0.136188
11.949549 49.967186 50.996060 174.535076 -32.137805 -5.557723 7.758435 22.562014 8.034336 1.018616 3.564888 0.882240 1.663289 5.711260 1.448365 6.326194 18.931399 5.673122 -1.219058 19.695856 3.308688 -3.228186 0.913106 6.407228 1.496347 -3.607642 -4.240759 17.448840 -30.099738 -19.385175 163.643752 -61.210735 -169.664238 -6.327779 -11.670258 4.214799 -11.106192 -0.090438 1.597092 1.659700 -4.067001 -1.531378 -136.567158 -70.068703 138.685640 10.705626 -6.292771 -2.728048 2.102912 -48.953115 6.777848 -129.374078 84.683945 -118.261926 -2.195167 -12.460555 -2.840381 -0.172461 0.812148 -0.010810 -6.779954 -52.407823 13.106211 -149.541472 81.265672 -157.061182 0.189932 -13.370426 8.580217 -0.262566 -0.910923 -0.130061
11.937190 49.971669 50.985438 174.586934 -32.121178 -5.544836 7.741497 22.639608 8.050632 1.020962 3.583572 0.889297 1.644838 5.674594 1.426607 6.359186 19.032007 5.737358 -1.213977 19.727598 3.309608 -3.217493 0.971608 6.405934 1.482604 -3.533750 -4.244009 17.445554 -30.071367 -19.381836 163.858581 -61.168172 -169.759363 -6.334776 -11.724026 4.197935 -11.124586 -0.077019 1.601856 1.648465 -4.104828 -1.540990 -137.712209 -70.013740 139.703019 10.735206 -6.218933 -2.839451 2.160760 -48.968891 6.734518 -129.314650 84.637567 -118.258646 -2.171694 -12.491062 -2.746570 -0.224199 0.835036 -0.030623 -6.799918 -52.411673 13.085100 -149.069538 81.246902 -156.645599 0.215030 -13.344130 8.615978 -0.237977 -0.907229 -0.121877
11.927030 49.976050 50.976274 174.639278 -32.099008 -5.545771 7.706671 22.665767 8.050466 1.022080 3.592711 0.892940 1.680781 5.782547 1.481893 6.341812 19.036888 5.742965 -1.212770 19.756031 3.306227 -3.212673 1.023987 6.398188 1.465036 -3.459921 -4.249274 17.454719 -30.030708 -19.379269 164.032927 -61.147653 -169.837609 -6.337989 -11.754801 4.128618 -11.144720 -0.064999 1.604518 1.620757 -4.144662 -1.544092 -138.756416 -69.952594 140.636455 10.762434 -6.163385 -2.932239 2.203532 -48.989453 6.702079 -129.242040 84.597453 -118.215338 -2.184616 -12.510764 -2.683051 -0.237276 0.841126 -0.029126 -6.835526 -52.423665 13.077394 -148.723169 81.233048 -156.343410 0.231347 -13.316212 8.649773 -0.223206 -0.889616 -0.116632
11.917021 49.978882 50.970381 174.691182 -32.058990 -5.549128 7.669281 22.672207 8.049149 1.023207 3.601715 0.896626 1.718916 5.881745 1.538009 6.325852 19.041470 5.751008 -1.214350 19.781724 3.299161 -3.212001 1.071447 6.384748 1.447438 -3.389493 -4.256248 17.479268 -29.971870 -19.377876 164.157141 -61.144121 -169.900653 -6.335952 -11.757979 4.028934 -11.169353 -0.054656 1.602883 1.578163 -4.185005 -1.541260 -139.676663 -69.871825 141.469192 10.784290 -6.117788 -3.014993 2.244826 -49.029510 6.664720 -129.182229 84.567103 -118.168961 -2.225681 -12.522218 -2.631525 -0.222166 0.852102 -0.037396 -6.870962 -52.455876 13.070051 -148.342331 81.219662 -156.005033 0.263724 -13.288431 8.691918 -0.220961 -0.890622 -0.120896
11.910066 49.982210 50.965316 174.715974 -32.025079 -5.557821 7.731167 22.758270 8.155779 1.026588 3.630427 0.909718 1.687209 5.836912 1.508240 6.326447 19.072739 5.780459 -1.218989 19.805796 3.288663 -3.215988 1.115986 6.365998 1.433253 -3.322255 -4.262875 17.517859 -29.894681 -19.379259 164.232910 -61.156230 -169.951779 -6.336459 -11.736518 3.931139 -11.203895 -0.045938 1.600124 1.525112 -4.224095 -1.534927 -140.464495 -69.768277 142.195764 10.797866 -6.080127 -3.089118 2.293015 -49.065942 6.642394 -129.093783 84.543428 -118.069298 -2.273606 -12.522773 -2.602776 -0.211205 0.868543 -0.057106 -6.899698 -52.480447 13.090347 -147.926625 81.202663 -155.628185 0.310559 -13.266322 8.731418 -0.228734 -0.895237 -0.124711
11.902762 49.985392 50.961266 174.745653 -31.990728 -5.569807 7.765108 22.800923 8.229372 1.029185 3.648835 0.919512 1.679501 5.837428 1.507132 6.329109 19.099833 5.812094 -1.227802 19.828197 3.275446 -3.226847 1.157364 6.343637 1.422892 -3.255748 -4.264667 17.562889 -29.805845 -19.380707 164.290779 -61.186970 -170.006748 -6.338086 -11.694086 3.863521 -11.251801 -0.035016 1.601259 1.469290 -4.261776 -1.528438 -141.125635 -69.642629 142.819476 10.803787 -6.052061 -3.162609 2.342942 -49.106512 6.611892 -129.061771 84.522993 -118.022356 -2.304900 -12.508581 -2.590882 -0.174074 0.862847 -0.046721 -6.926311 -52.506329 13.097359 -147.702781 81.198817 -155.425104 0.326916 -13.251671 8.755975 -0.225936 -0.899751 -0.126988
11.889653 49.989693 50.954700 174.785718 -31.974982 -5.554162 7.741215 22.820686 8.220828 1.055067 3.689567 0.947192 1.683107 5.856089 1.519369 6.293380 19.072254 5.795759 -1.194977 19.902357 3.297228 -3.244980 1.194589 6.320778 1.442373 -3.136509 -4.220068 17.602793 -29.715666 -19.370050 164.369031 -61.233093 -170.086602 -6.338382 -11.629999 3.850754 -11.273680 0.038540 1.632644 1.417839 -4.296498 -1.523436 -141.676116 -69.495615 143.341040 10.807705 -6.034151 -3.242329 2.430403 -49.136766 6.547618 -129.129574 84.496021 -118.142083 -2.254746 -12.479809 -2.501513 -0.276864 0.847314 -0.064335 -6.912861 -52.518114 13.034800 -147.639854 81.206169 -155.372300 0.313835 -13.221607 8.767617 -0.208923 -0.905894 -0.117873
11.878971 49.992584 50.952069 174.805641 -31.943099 -5.547364 7.781345 22.854756 8.272128 1.046213 3.686218 0.943912 1.686723 5.872438 1.530816 6.319814 19.116508 5.851722 -1.233472 19.890995 3.262773 -3.267562 1.225014 6.297359 1.413893 -3.098551 -4.225004 17.624865 -29.633465 -19.332381 164.480048 -61.289918 -170.191510 -6.344252 -11.554814 3.907460 -11.345673 0.018965 1.630986 1.393657 -4.370322 -1.550521 -142.016108 -69.351974 143.623186 10.816606 -6.026362 -3.329624 2.521719 -49.179401 6.492713 -129.067949 84.473171 -118.080693 -2.277111 -12.467104 -2.437440 -0.290084 0.843261 -0.075212 -6.897672 -52.545979 13.008900 -147.422626 81.205940 -155.171345 0.325634 -13.193931 8.800068 -0.204692 -0.909024 -0.118575
11.869222 49.996062 50.949539 174.831527 -31.917597 -5.551130 7.819327 22.889820 8.328054 1.035686 3.682238 0.941285 1.664561 5.851875 1.516483 6.379677 19.190415 5.931080 -1.272166 19.876737 3.229330 -3.307128 1.186019 6.277239 1.384738 -3.062542 -4.227211 17.625947 -29.563014 -19.257439 164.608308 -61.356669 -170.300386 -6.354029 -11.488084 4.026399 -11.416186 -0.003436 1.631883 1.343367 -4.372256 -1.521048 -142.485327 -69.186373 144.080105 10.831860 -6.029935 -3.424531 2.556721 -49.208692 6.459416 -129.056553 84.462391 -118.070680 -2.287555 -12.443057 -2.419342 -0.292065 0.826937 -0.068281 -6.862547 -52.561203 12.968939 -147.210388 81.212111 -154.954624 0.330434 -13.199555 8.824114 -0.203517 -0.880703 -0.111817
